<?xml version="1.0" encoding="UTF-8"?>
<svg width="12px" height="18px" viewBox="0 0 12 18" version="1.1"
		 xmlns="http://www.w3.org/2000/svg"
		 xmlns:xlink="http://www.w3.org/1999/xlink">
	<!-- Generator: sketchtool 41.2 (35397) - http://www.bohemiancoding.com/sketch -->
	<title>C72A245B-20A8-4E28-AC6B-B0A627A506F8</title>
	<desc>Created with sketchtool.</desc>
	<defs></defs>
	<g id="Page-1" stroke="none" stroke-width="1" fill="none" fill-rule="evenodd"
		 opacity="0.697353078">
		<g id="1440" transform="translate(-474.000000, -261.000000)" fill="#00E676">
			<path
				d="M480.842848,269.829632 C483.013762,269.36247 485.004704,267.204203 484.36449,264.529457 C483.863005,262.442923 481.560862,260.402118 478.742236,261.162488 C472.594126,262.824005 475.080929,271.0742 480.842848,269.829632 L480.842848,269.829632 Z M479.242784,263.371866 C480.632881,262.997061 481.747396,263.926003 482.031414,264.942819 C482.39417,266.246567 481.439006,267.336012 480.412602,267.598735 C477.500241,268.345655 476.252622,264.169896 479.242784,263.371866 Z M483.050258,270.535557 C481.143414,271.612676 478.611265,271.634309 476.68026,270.58423 C476.313002,270.383228 475.88389,270.009166 475.406454,269.963196 C474.080459,269.837908 472.430696,271.929052 477.060083,273.341476 C477.47953,273.468567 478.363849,273.584842 478.650891,273.72996 L475.475074,276.705333 C474.280518,277.804987 475.260517,279.0777 476.435744,278.896528 C477.325862,278.759522 478.947597,276.524161 479.866709,276.086102 C480.275525,276.553906 482.529331,278.828926 483.247417,278.905541 C484.378186,279.02452 485.316627,277.836534 484.213886,276.790962 C483.550889,276.161816 481.219765,274.120247 481.000377,273.709229 C482.273217,273.341476 482.347635,273.560505 483.972269,272.782635 C486.930631,271.363001 485.248975,270.002856 484.416845,269.95869 C483.798305,269.928044 483.459074,270.306613 483.050258,270.535557 Z"
				id="ok_red"></path>
		</g>
	</g>
</svg>
