<?xml version="1.0" encoding="UTF-8"?>
<svg width="18px" height="14px" viewBox="0 0 18 14" version="1.1"
		 xmlns="http://www.w3.org/2000/svg"
		 xmlns:xlink="http://www.w3.org/1999/xlink">
	<!-- Generator: sketchtool 41.2 (35397) - http://www.bohemiancoding.com/sketch -->
	<title>85DD5969-DBAD-4D5B-848B-13EC1B77B4F1</title>
	<desc>Created with sketchtool.</desc>
	<defs></defs>
	<g id="Page-1" stroke="none" stroke-width="1" fill="none" fill-rule="evenodd"
		 opacity="0.697353078">
		<g id="1440" transform="translate(-316.000000, -263.000000)" fill="#00E676">
			<path
				d="M316,275.411875 C317.607917,276.4155 319.516875,277 321.569271,277 C328.252396,277 331.90651,271.6135 331.90651,266.94275 C331.90651,266.789625 331.902969,266.63825 331.895885,266.486875 C332.60599,265.988125 333.22224,265.366 333.708333,264.65725 C333.057552,264.939 332.357188,265.128 331.622292,265.212 C332.37224,264.777125 332.946875,264.082375 333.219583,263.258125 C332.517448,263.662375 331.739167,263.956375 330.912188,264.11475 C330.249896,263.42875 329.305156,263 328.260365,263 C326.25401,263 324.626615,264.581125 324.626615,266.532375 C324.626615,266.810625 324.659375,267.07925 324.721354,267.33825 C321.702083,267.19125 319.023698,265.78425 317.233385,263.64575 C316.920833,264.169 316.741094,264.7745 316.741094,265.422875 C316.741094,266.64875 317.382135,267.731125 318.356979,268.364625 C317.761094,268.348 317.20151,268.187875 316.71099,267.92275 L316.71099,267.967375 C316.71099,269.678875 317.96474,271.108625 319.624896,271.43325 C319.321198,271.514625 318.999792,271.556625 318.668646,271.556625 C318.43401,271.556625 318.206458,271.535625 317.985104,271.493625 C318.446406,272.898875 319.788698,273.920875 321.378021,273.948 C320.134896,274.8965 318.570365,275.46 316.866823,275.46 C316.57375,275.46 316.285104,275.446 316,275.411875"
				id="twi_red"></path>
		</g>
	</g>
</svg>
