<?xml version="1.0" encoding="UTF-8"?>
<svg width="26px" height="14px" viewBox="0 0 26 14" version="1.1"
		 xmlns="http://www.w3.org/2000/svg"
		 xmlns:xlink="http://www.w3.org/1999/xlink">
	<!-- Generator: sketchtool 41.2 (35397) - http://www.bohemiancoding.com/sketch -->
	<title>B305834A-5171-4647-8477-7D3B8C9200AE</title>
	<desc>Created with sketchtool.</desc>
	<defs></defs>
	<g id="Page-1" stroke="none" stroke-width="1" fill="none" fill-rule="evenodd"
		 opacity="0.697353078">
		<g id="1440" transform="translate(-351.000000, -263.000000)" fill="#00E676">
			<path
				d="M363.568993,276.941128 L365.104651,276.941128 C365.104651,276.941128 365.568161,276.892603 365.804905,276.649113 C366.023507,276.424687 366.01625,276.004428 366.01625,276.004428 C366.01625,276.004428 365.986317,274.036578 366.942362,273.746296 C367.884802,273.460347 369.095732,275.648291 370.37832,276.489675 C371.348878,277.126562 372.086321,276.987053 372.086321,276.987053 L375.516835,276.941128 C375.516835,276.941128 377.311007,276.835413 376.460182,275.487986 C376.390338,275.377939 375.964018,274.49063 373.909519,272.668354 C371.757963,270.76116 372.04641,271.069639 374.637891,267.769959 C376.215274,265.761383 376.846591,264.534401 376.648851,264.009294 C376.461089,263.50845 375.300954,263.641026 375.300954,263.641026 L371.43777,263.663556 C371.43777,263.663556 371.151138,263.626296 370.938885,263.747607 C370.732074,263.86632 370.598736,264.143604 370.598736,264.143604 C370.598736,264.143604 369.986468,265.698127 369.171925,267.020425 C367.452132,269.810596 366.763671,269.957903 366.482481,269.784601 C365.828488,269.380806 365.99176,268.163356 365.99176,267.297709 C365.99176,264.593324 366.421708,263.465991 365.156354,263.173976 C364.736384,263.077793 364.427075,263.013671 363.353112,263.003273 C361.975282,262.989409 360.808798,263.006739 360.148456,263.316084 C359.70853,263.521448 359.369288,263.979833 359.576098,264.005828 C359.830983,264.038756 360.40969,264.154868 360.716277,264.553464 C361.111757,265.068173 361.098151,266.223234 361.098151,266.223234 C361.098151,266.223234 361.325824,269.405935 360.566612,269.801931 C360.045957,270.072283 359.332098,269.519448 357.798254,266.987498 C357.012736,265.691195 356.419517,264.257983 356.419517,264.257983 C356.419517,264.257983 356.305227,263.990231 356.101137,263.84639 C355.853509,263.673087 355.507918,263.61763 355.507918,263.61763 L351.837031,263.641026 C351.837031,263.641026 351.286444,263.655757 351.084168,263.884516 C350.903663,264.088147 351.069655,264.509272 351.069655,264.509272 C351.069655,264.509272 353.943233,270.931863 357.19687,274.168288 C360.18111,277.136093 363.568993,276.941128 363.568993,276.941128"
				id="vk_red"></path>
		</g>
	</g>
</svg>
