<?xml version="1.0" encoding="UTF-8"?>
<svg width="20px" height="15px" viewBox="0 0 20 15" version="1.1"
		 xmlns="http://www.w3.org/2000/svg"
		 xmlns:xlink="http://www.w3.org/1999/xlink">
	<!-- Generator: sketchtool 41.2 (35397) - http://www.bohemiancoding.com/sketch -->
	<title>D99E5EC6-DCDA-4957-BED2-B929B9773EFE</title>
	<desc>Created with sketchtool.</desc>
	<defs></defs>
	<g id="Page-1" stroke="none" stroke-width="1" fill="none" fill-rule="evenodd"
		 opacity="0.697353078">
		<g id="1440" transform="translate(-431.000000, -263.000000)" fill="#00E676">
			<path
				d="M438.935,272.695798 L438.934375,267.036559 L444.338125,269.875935 L438.935,272.695798 Z M450.8,266.055901 C450.8,266.055901 450.604375,264.668 450.005,264.056819 C449.244375,263.254291 448.391875,263.250515 448.00125,263.203937 C445.2025,263 441.004375,263 441.004375,263 L440.995625,263 C440.995625,263 436.7975,263 433.99875,263.203937 C433.6075,263.250515 432.755625,263.254291 431.994375,264.056819 C431.395,264.668 431.2,266.055901 431.2,266.055901 C431.2,266.055901 431,267.686135 431,269.315739 L431,270.844004 C431,272.474238 431.2,274.103842 431.2,274.103842 C431.2,274.103842 431.395,275.491743 431.994375,276.102924 C432.755625,276.905452 433.755,276.880274 434.2,276.963989 C435.8,277.11883 441,277.166667 441,277.166667 C441,277.166667 445.2025,277.160372 448.00125,276.956436 C448.391875,276.909228 449.244375,276.905452 450.005,276.102924 C450.604375,275.491743 450.8,274.103842 450.8,274.103842 C450.8,274.103842 451,272.474238 451,270.844004 L451,269.315739 C451,267.686135 450.8,266.055901 450.8,266.055901 L450.8,266.055901 Z"
				id="Youtube_red"></path>
		</g>
	</g>
</svg>
