<svg version="1" xmlns="http://www.w3.org/2000/svg" width="682.667" height="682.667" viewBox="0 0 512.000000 512.000000"><path d="M114 93.2c.2 7.5 25.2 287.4 25.7 287.9.9.9 38.3 11.3 38.8 10.7.1-.1 3.5-12.6 7.4-27.5l7.2-27.3-3.1-34.6c-1.6-19-3-35.4-3-36.5 0-1.7 1.1-1.9 12.7-2.1l12.7-.3L219 238c3.7-14 7-26.7 7.4-28.3l.6-2.7h-22.5c-12.4 0-22.5-.3-22.5-.8 0-.4-1.1-13.3-2.5-28.7-1.4-15.3-2.5-28-2.5-28.2 0-.1 14.7-.4 32.7-.5l32.8-.3 6.7-25.5c3.7-14 6.9-26.5 7.3-27.8l.5-2.2h-71.5c-39.3 0-71.5.1-71.5.2zM283.6 98.2c-2.7 9.8-12.6 48.5-12.6 49.6 0 .9 8.3 1.2 32 1.2 17.6 0 32 .3 32 .8 0 1.5-4 46.9-4.5 51.9l-.6 5.3h-74.8l-1.5 5.2c-.8 2.9-4 15.1-7.1 27.1-3.1 12.1-5.9 22.5-6.2 23.3-.4 1.2 5.9 1.4 42.1 1.4 23.4 0 42.6.3 42.6.7 0 2.6-6.9 71.6-7.2 71.8-.7.7-60.3 16.5-62.2 16.5-1.1 0-9.6-2.1-18.9-4.6-9.3-2.5-17.1-4.3-17.4-4.1-.5.6-14.3 52.7-14.3 54.3 0 1 47 14.4 50.9 14.4 2.4 0 115.3-30.9 116.3-31.9.4-.4 6.2-63.2 12.8-139.6 6.6-76.5 12.3-141.1 12.6-143.8l.6-4.7H285.1l-1.5 5.2z"/></svg>